/* XPM */
static char *sdl2trs[] = {
/* columns rows colors chars-per-pixel */
"32 32 159 2 ",
"   c #0170018C01A1",
".  c #050508080909",
"X  c #0B4A0BE60C2B",
"o  c #11110E0E0F0F",
"O  c #0E0E0EDC1010",
"+  c #0E8F10661167",
"@  c #1212139B1450",
"#  c #141416A918AB",
"$  c #15C0192E1AB0",
"%  c #19621B7A1C91",
"&  c #262619191717",
"*  c #1F1F20201E1E",
"=  c #1C1C1E7420A1",
"-  c #1D87215D229B",
";  c #229C246124F4",
":  c #282827272626",
">  c #262628282727",
",  c #292929292727",
"<  c #2424268D2929",
"1  c #292927272828",
"2  c #256029642B3F",
"3  c #2A602BF62C17",
"4  c #30302F2F2D2D",
"5  c #318730862E84",
"6  c #2B5E2E6130FE",
"7  c #32322F2F3030",
"8  c #2DA4326D340C",
"9  c #2E2E36363838",
"0  c #331F336E335B",
"q  c #3A3A37373636",
"w  c #38B9383836B6",
"e  c #323235E03956",
"r  c #341439FA3C1C",
"t  c #3CAE3C3C3B91",
"y  c #464622221A1A",
"u  c #428241C13CFD",
"i  c #35753D3D4141",
"p  c #3A3A3DFE4282",
"a  c #35F642024606",
"s  c #3CF0422844AB",
"d  c #3BBC45C64A8A",
"f  c #39394A4A5151",
"g  c #37374B4B5858",
"h  c #3C3C53536060",
"j  c #452A44BE43CA",
"k  c #484847144512",
"l  c #474748484545",
"z  c #496948E94626",
"x  c #434345FD4A4A",
"c  c #45C54A304C32",
"v  c #4AF94BD74BCB",
"b  c #50D04E4E4CCC",
"n  c #4E4E50504F4F",
"m  c #51C351184CBE",
"M  c #45454C4C5050",
"N  c #4B4B4E4E5151",
"B  c #53534F4F5151",
"V  c #464650505353",
"C  c #4ACB519154D4",
"Z  c #464653535959",
"A  c #5479540B5378",
"S  c #5CF65B5B5588",
"D  c #535354D459D9",
"F  c #53135A5A5C5C",
"G  c #5D5D5E5E5CDC",
"H  c #5B5B63635E5E",
"J  c #666662625D5D",
"K  c #444457576060",
"L  c #49495A5A6666",
"P  c #4D4D5E5E6868",
"I  c #54545D5D65E5",
"U  c #5ADB5DDD6262",
"Y  c #54D461616464",
"T  c #5BB1661066BC",
"R  c #515160606A6A",
"E  c #5B0564BA6969",
"W  c #5D5D6A146D17",
"Q  c #55D66AEB7676",
"!  c #5C8F6C0573DA",
"~  c #5B5B6E6E7A7A",
"^  c #62E363636565",
"/  c #656569696666",
"(  c #616164646969",
")  c #64646B046D06",
"_  c #6D6D6DCD6A2A",
"`  c #75756F6F6969",
"'  c #6F6F71716C6C",
"]  c #72B270B06D6D",
"[  c #62A26DEE72B2",
"{  c #6A2A6D6D7171",
"}  c #61616E6E7979",
"|  c #70706B6B7070",
" . c #636371717620",
".. c #6F19711B7620",
"X. c #656574CA7CD2",
"o. c #6B6B77777D7D",
"O. c #76CC74CA71C7",
"+. c #797977777676",
"@. c #767679797676",
"#. c #7B507BA67676",
"$. c #72E075757A9F",
"%. c #7CE77CFD7ABA",
"&. c #80807F7F7E7E",
"*. c #7E7E81007D7D",
"=. c #818182827F7F",
"-. c #686877778080",
";. c #666678F88302",
":. c #70F07EFF8403",
">. c #7F7F82828282",
",. c #744F853C8DD6",
"<. c #7BBB83C38C4C",
"1. c #6E6E8A8A9514",
"2. c #72F387879292",
"3. c #79F98A8A9191",
"4. c #741E8D379943",
"5. c #7A7A8D8D9943",
"6. c #757589899494",
"7. c #7C7C91109C1C",
"8. c #7D7D9797A8A8",
"9. c #75759696A2A2",
"0. c #83178418839E",
"q. c #8686894986C6",
"w. c #870787078A09",
"e. c #87078B0A8B0B",
"r. c #8BA68C9A8D06",
"t. c #8D8D91108E4E",
"y. c #909091918F8F",
"u. c #81818F8F9393",
"i. c #8F8F8B8B9090",
"p. c #91518ECE9211",
"a. c #8E5B925F91C4",
"s. c #93BC9404951A",
"d. c #979798989797",
"f. c #949494EA9943",
"g. c #96EC9A6F9A9A",
"h. c #9B459C719D32",
"j. c #89899898A2A2",
"k. c #8D8D9F9FA928",
"l. c #9D9D9C9CA1A1",
"z. c #A1A19C9CA2A2",
"x. c #9393A4FAAD57",
"c. c #9595A7A7B5B5",
"v. c #9292A8A8B6B6",
"b. c #9B1AAEAEBB3A",
"n. c #9C9CACACB4B4",
"m. c #A3A3A512A5EE",
"M. c #A727A969A9E9",
"N. c #AA29ACACAD2D",
"B. c #AD2DAE2EB0B0",
"V. c #AEAEB0B0B1B1",
"C. c #A3A3B35DBD12",
"Z. c #B25CB409B60B",
"A. c #B535B737B9B9",
"S. c #B7B7B9B9BBBB",
"D. c #BBBBBCBCBEBE",
"F. c #A5A5B8B8C3C3",
"G. c #BFBFC0C0C241",
"H. c #C390C45DC5F8",
"J. c None",
/* pixels */
"J.J.J.J.J.J.J.J.J.J.J.J.J.J.J.J.J.J.J.J.J.J.J.J.J.J.J.J.J.J.J.J.",
"J.J.J.J.J.J.%.%.=.q.r.r.r.s.s.s.h.h.h.h.z.h.s.f.s.J.J.J.J.J.J.J.",
"J.J.J.J.%.@.%.%.=.=.q.e.r.r.t.t.y.s.d.d.d.s.s.d.a.r.w.J.J.J.J.J.",
"J.J.J.%.>.%.>.>.q.q.r.t.y.s.s.d.d.h.h.h.h.h.d.d.s.s.r.r.J.J.J.J.",
"J.J._ ] ' _ _ _ _ _ ` _ ] ] O.#.#.%.&.&.&.&.0.0.q.0.=.0.0.0.J.J.",
"J.5 , , 3 4 3 3 4 5 0 0 q 0 w t q t q t S b k k k k z v B n v J.",
"J.%     . X . X X @ + o o o .           b $                 . J.",
"J.:   X 6 h Z P Q Q ~ ! [ Y L g , % .   b # .               @ J.",
"J.t   < F ;.1.1.4.9.1.4.4.5.7.X.Y C 8 . n 3 - ; % @ X # # @ ; J.",
"J.v   < H T ) T T W ) [ [ [  . .W Y i o k X     0 i %       q J.",
"J.J.X - ~  .F T ,.*.T ,.,.Q 3.7.6.W s $ u @ o o @ @ o X . X J.J.",
"J.J.* # X.X.M  .x.k.3.k.k.1.G.8.4.W s * m z z z k j j j j j J.J.",
"J.J.5 . I ,.Z R 3.X.x.3.o.,.n.b.j.Z 9 ; A J A m S S k k k b J.J.",
"J.J.t   i ;.7.Q C.C.,.n.C.,.v.v.,.V 2 : z m u u m m t u u z J.J.",
"J.J.j X - c a r r f a f a a a d s a % 3 z u z u u z z b m A J.J.",
"J.J.B @ + M C e 6 a 9 9 9 9 9 a 9 6 + 5 * o o o o o @ @ , J.J.J.",
"J.J.J.&   = % % % = = - ; - - - * $   e ; % @ .   X o X 4 J.J.J.",
"J.J.J.5 = x ; # # # $ = % = % = 8 s X w X O O O X X X X v J.J.J.",
"J.J.J.A N x x s i c N C I ^ :.:.<.<.x e + + @ @ @ @ @ @ | J.J.J.",
"J.J.J.^ m c k c c v v k c c v B v c j t t t t p u p u v J.J.J.J.",
"J.J.J.M.m.M.N.B.Z.A.A.S.F.H.H.H.H.H.H.F.G.D.A.Z.B.B.M.m.J.J.J.J.",
"J.J.J.w.j x N D D F U U E [ | | ....$.$.| +.$.| { { ) $.J.J.J.J.",
"J.J.J.D @ - = 6 = 6 1 : 6 = 9 2 2 0 < r 0 6 ; < e 1 & % z.J.J.J.",
"J.J.J.j @ $ # + = + $ = = - = - ; # 2 6 p < < % e 7 y % 0.J.J.J.",
"J.J.q.8 o X + X $ + # % + # # X ; S S < e % @ X - 0 6 = U J.J.J.",
"J.J.%.; % @ # + + $ $ + $ $ $ # : J ] 0 e = % @ j e ( p x J.J.J.",
"J.J./ $ @ + + X X + + + + # # # X @ ; r M , % % ` x D x 6 s.J.J.",
"J.J.n @ ; 8 3 % % = - % % - - 2 3 p x M N x e e t 7 6 2 = w.J.J.",
"J.J.t * > 3 8 : : 2 , 2 3 3 3 3 s c N v x p r e 8 3 2 ; % ) J.J.",
"J.y.*.#.@.%.*.r.s.h.m.m.m.M.M.N.m.h.g.g.f.w.0.e.e.a.a.t.r.l.J.J.",
"J.J.#.&.#.O.O.*.0.e.r.p.s.p.f.p.p.r.i.f.f.f.w.r.a.s.a.t.e.e.J.J.",
"J.J.J.J.J.J.J.J.J.J.J.J.J.J.J.J.J.J.J.J.J.J.J.J.J.J.J.J.J.J.J.J."
};
